<?xml version="1.0" standalone="no"?>
<!DOCTYPE svg PUBLIC "-//W3C//DTD SVG 20010904//EN"
 "http://www.w3.org/TR/2001/REC-SVG-20010904/DTD/svg10.dtd">
<svg version="1.0" xmlns="http://www.w3.org/2000/svg"
 width="980.000000pt" height="980.000000pt" viewBox="0 0 980.000000 980.000000"
 preserveAspectRatio="xMidYMid meet">

<g transform="translate(0.000000,980.000000) scale(0.100000,-0.100000)"
fill="#000000" stroke="none">
<path d="M4800 7899 c-70 -13 -181 -73 -234 -125 -91 -90 -136 -222 -136 -400
0 -76 -3 -94 -15 -94 -29 0 -48 -48 -49 -123 0 -92 24 -148 71 -161 30 -9 32
-12 48 -100 18 -99 47 -175 76 -202 21 -19 25 -44 8 -44 -11 0 -133 -83 -177
-119 l-22 -20 22 -23 c64 -67 110 -122 176 -210 39 -54 72 -100 72 -103 0 -3
-48 44 -107 103 -140 139 -252 223 -388 288 -173 83 -302 107 -456 84 -46 -6
-87 -14 -92 -17 -4 -3 1 -19 11 -37 23 -38 66 -165 59 -172 -3 -3 -15 16 -27
41 -32 67 -120 157 -187 193 -76 40 -166 56 -267 47 -105 -9 -225 -40 -252
-65 -33 -32 -73 -118 -88 -194 -8 -37 -17 -71 -20 -74 -3 -3 -6 25 -6 61 0
113 57 219 151 284 36 24 47 43 88 143 107 259 221 437 301 470 17 7 30 16 30
20 0 5 -14 23 -31 40 -17 17 -29 34 -25 37 3 4 12 0 19 -9 20 -25 60 -48 83
-48 22 0 129 66 129 79 0 3 -11 25 -23 49 -31 58 -23 75 11 23 15 -22 39 -48
53 -57 l25 -17 -27 -22 -27 -21 36 -17 c53 -25 79 -21 117 18 l34 35 -52 76
c-29 42 -51 79 -48 81 11 11 136 -137 136 -160 0 -6 -14 -25 -31 -43 l-30 -31
43 -7 c39 -6 45 -5 66 21 39 48 38 66 -7 132 -23 34 -38 61 -33 61 5 0 32 -30
62 -67 l53 -67 -21 -37 -21 -37 27 -5 c21 -5 32 0 50 21 39 47 37 59 -12 123
-25 32 -42 59 -38 59 8 0 104 -99 117 -120 3 -5 -10 -33 -30 -63 l-35 -53 -95
3 c-92 2 -97 1 -125 -25 -17 -15 -31 -38 -32 -51 -3 -21 3 -27 42 -38 63 -19
114 -4 142 43 20 33 22 34 68 28 l47 -6 52 71 52 72 -67 97 c-136 196 -137
197 -180 199 -319 10 -396 1 -477 -54 -29 -20 -115 -68 -193 -108 -404 -207
-722 -436 -860 -618 -75 -99 -154 -282 -154 -358 0 -12 -15 -39 -34 -60 -65
-71 -57 -151 24 -229 99 -96 306 -159 525 -160 50 0 66 -3 58 -11 -6 -6 -72
-13 -159 -17 l-148 -5 72 -68 c184 -172 443 -293 659 -306 172 -11 301 35 401
142 53 57 133 185 115 185 -4 0 -43 -7 -86 -15 -166 -32 -394 -14 -554 43 -75
26 -240 119 -230 129 3 2 36 -11 74 -31 73 -36 209 -76 333 -97 112 -19 302
-17 372 4 61 18 94 51 82 81 -3 9 -2 16 4 16 13 0 66 -104 90 -180 12 -36 46
-155 76 -265 88 -322 164 -513 259 -648 74 -107 73 -112 -5 -39 -128 119 -227
310 -318 611 -21 69 -46 163 -56 209 -9 45 -21 82 -26 82 -4 0 -8 -4 -8 -9 0
-18 -81 -111 -115 -134 -41 -26 -43 -47 -19 -164 37 -178 195 -539 300 -682
92 -126 151 -274 179 -445 21 -129 19 -382 -4 -521 -10 -60 -18 -111 -17 -111
14 -13 152 -102 200 -129 142 -79 337 -141 521 -166 182 -24 451 2 635 61 150
49 400 185 400 218 -1 9 -7 49 -16 87 -21 100 -30 414 -14 528 23 171 83 332
166 449 129 182 277 512 318 712 25 118 22 140 -19 164 -19 12 -55 48 -81 82
l-48 61 -31 -128 c-92 -372 -215 -636 -358 -770 -83 -79 -85 -74 -11 32 99
143 167 315 264 665 65 236 96 327 132 391 23 41 44 53 33 19 -9 -29 35 -66
98 -81 68 -18 270 -15 385 5 108 19 236 58 317 98 l60 29 -35 -31 c-49 -43
-181 -104 -280 -130 -144 -37 -356 -39 -529 -4 l-34 7 34 -64 c43 -83 147
-187 219 -221 149 -69 333 -63 542 17 151 58 327 173 426 277 l33 35 -146 5
c-90 3 -151 10 -158 17 -8 8 6 11 55 11 120 0 295 31 383 67 62 26 161 99 183
135 42 70 34 143 -19 194 -16 16 -29 38 -29 52 0 43 -30 142 -65 214 -125 256
-432 500 -983 779 -62 31 -128 69 -147 84 -54 40 -91 52 -205 64 -73 8 -131 8
-193 1 -49 -6 -92 -8 -97 -5 -20 12 -46 -15 -140 -151 l-100 -143 48 -68 49
-68 50 2 c45 2 51 0 67 -28 10 -17 33 -37 51 -46 30 -14 40 -15 87 -2 47 13
53 17 50 39 -1 14 -15 37 -31 52 -28 25 -34 27 -124 24 l-95 -2 -36 54 -36 55
56 64 c31 35 59 62 61 59 3 -2 -14 -30 -37 -60 l-43 -56 24 -45 c25 -46 29
-49 65 -39 l21 6 -20 37 -21 38 48 59 c66 81 87 89 36 15 -46 -67 -47 -86 -8
-133 21 -24 28 -27 66 -21 l43 6 -30 31 c-17 18 -31 36 -31 41 1 22 128 171
137 161 3 -3 -8 -22 -24 -43 -16 -21 -40 -55 -52 -76 l-24 -38 34 -35 c37 -38
64 -42 116 -17 l35 16 -26 19 -25 19 37 37 c20 20 45 48 54 62 27 40 21 1 -7
-49 -14 -24 -24 -45 -23 -46 45 -35 115 -75 132 -75 23 0 63 23 83 48 7 9 16
12 20 8 4 -4 -8 -21 -27 -37 l-35 -29 25 -20 c14 -10 38 -29 53 -41 68 -52
194 -271 268 -463 30 -79 39 -93 82 -124 98 -71 147 -167 147 -286 -1 -66 -13
-60 -24 11 -10 66 -43 144 -79 186 -28 33 -43 41 -109 57 -238 57 -406 23
-527 -105 -27 -28 -61 -75 -76 -104 -14 -29 -28 -51 -31 -49 -7 8 35 135 57
172 l20 34 -38 13 c-64 22 -263 17 -355 -9 -200 -57 -413 -198 -584 -387 -37
-41 -70 -73 -72 -70 -6 5 125 178 202 265 l65 75 -22 18 c-12 9 -59 43 -104
74 -46 31 -83 60 -83 64 0 3 7 12 16 20 35 29 73 136 88 250 6 40 10 46 39 55
23 6 38 20 52 49 39 77 18 235 -30 235 -12 0 -15 18 -15 94 0 283 -112 449
-349 520 -58 17 -148 19 -221 5z"/>
<path d="M3516 7379 c-14 -11 -26 -24 -26 -29 0 -10 152 -100 168 -100 7 0 12
7 12 16 0 9 16 32 36 50 l35 34 -31 -6 c-38 -8 -112 12 -139 37 -25 23 -23 23
-55 -2z"/>
<path d="M6227 7381 c-23 -23 -98 -45 -132 -39 -29 6 -34 -8 -5 -17 10 -3 25
-22 32 -41 6 -18 16 -34 22 -34 15 0 166 91 166 100 0 8 -54 51 -62 49 -1 0
-11 -8 -21 -18z"/>
</g>
</svg>
